/* XPM */
static char *e7fc2e8d93d9497bacbc2457abefa899[] = {
/* columns rows colors chars-per-pixel */
"31 31 3 1 ",
"  c None",
". c black",
"X c #00BBFF",
/* pixels */
"               X               ",
"              X.X              ",
"            XX...XX            ",
"           X.......X           ",
"          X.........X          ",
"         X...........X         ",
"       XX.............XX       ",
"      X.................X      ",
"     X...................X     ",
"   XX.....................XX   ",
"  X.........................X  ",
" X...........................X ",
" X...........................X ",
"  X.........................X  ",
"  X.........................X  ",
"  X.........................X  ",
"   X.......................X   ",
"   X.......................X   ",
"   X.......................X   ",
"    X.....................X    ",
"    X.....................X    ",
"    X.....................X    ",
"     X...................X     ",
"     X...................X     ",
"     X...................X     ",
"      X.................X      ",
"      XXXXXXXXXXXXXXXXXXX      ",
"                               ",
"                               ",
"                               ",
"                               "
};
