/* XPM */
static char *result[] = {
/* columns rows colors chars-per-pixel */
"33 33 2 1 ",
"  c green",
". c None",
/* pixels */
"............         ............",
"..........  .........  ..........",
"........  .............  ........",
"......  .................  ......",
"..... ..................... .....",
".... ....................... ....",
"... ......................... ...",
"... ......................... ...",
".. ........................... ..",
".. ........................... ..",
". ............................. .",
". ............................. .",
" ............................... ",
" ............................... ",
" ............................... ",
" ............................... ",
" ............................... ",
" ............................... ",
" ............................... ",
" ............................... ",
" ............................... ",
". ............................. .",
". ............................. .",
".. ........................... ..",
".. ........................... ..",
"... ......................... ...",
"... ......................... ...",
".... ....................... ....",
"..... ..................... .....",
"......  .................  ......",
"........  .............  ........",
"..........  .........  ..........",
"............         ............"
};
